<svg width="366" height="72" viewBox="0 0 366 72" fill="none" xmlns="http://www.w3.org/2000/svg">
<path d="M0 0V0C13.2548 0 24 10.7452 24 24V72V72C10.7452 72 0 61.2548 0 48V0Z" fill="black"/>
<path d="M27 48H37C50.2548 48 61 58.7452 61 72V72H27V48Z" fill="black"/>
<path d="M75.4 60V16.2H83.5V60H75.4ZM102.511 60.78C93.9306 60.78 87.0906 53.52 87.0906 44.52C87.0906 35.52 93.9306 28.14 102.511 28.14C107.911 28.14 110.731 30.36 112.411 33.72V28.8H120.451V60H112.591V54.9C110.911 58.44 108.091 60.78 102.511 60.78ZM95.1906 44.46C95.1906 49.2 98.6706 53.46 103.831 53.46C109.171 53.46 112.591 49.38 112.591 44.52C112.591 39.66 109.171 35.46 103.831 35.46C98.6706 35.46 95.1906 39.6 95.1906 44.46ZM125.263 60V28.8H133.243V33.36C134.863 29.88 137.983 28.08 142.783 28.08C147.163 28.08 150.883 30.18 152.923 33.96C155.023 30.18 158.023 28.08 163.483 28.08C170.203 28.08 175.363 33.06 175.363 40.92V60H167.263V42.9C167.263 37.5 164.683 35.16 161.023 35.16C157.243 35.16 154.663 36.9 154.663 42.9V60H146.563V42.9C146.563 37.5 143.863 35.16 139.843 35.16C136.423 35.16 133.363 37.5 133.363 42.9V60H125.263ZM179.873 72V28.8H187.853V33.84C189.533 30.42 192.353 28.14 197.813 28.14C206.393 28.14 213.233 35.52 213.233 44.52C213.233 53.52 206.393 60.78 197.813 60.78C192.473 60.78 189.653 58.62 187.973 55.38V72H179.873ZM187.733 44.52C187.733 49.38 191.153 53.46 196.493 53.46C201.653 53.46 205.133 49.2 205.133 44.46C205.133 39.6 201.653 35.46 196.493 35.46C191.153 35.46 187.733 39.66 187.733 44.52ZM226.881 60.78C221.601 60.78 217.341 58.98 213.921 55.32L219.381 50.34C221.661 52.92 224.061 54.18 226.701 54.18C229.461 54.18 231.021 52.8 231.021 50.94C231.021 49.32 230.241 48.42 225.321 47.28C216.981 45.3 215.721 41.52 215.721 37.56C215.721 32.1 220.041 28.02 227.361 28.02C232.401 28.02 235.761 29.28 238.941 33.42L233.061 37.92C231.561 35.52 229.641 34.56 227.541 34.56C225.321 34.56 223.641 35.4 223.641 37.32C223.641 38.4 224.121 39.36 227.841 40.32C236.901 42.66 239.001 46.02 239.001 50.7C239.001 56.46 233.781 60.78 226.881 60.78ZM253.45 60C247.27 60 243.91 57.12 243.91 50.34V35.7H239.53V28.8H243.91V22.5L252.01 21.66V28.8H258.61V35.7H252.01V49.92C252.01 51.9 252.97 52.8 254.53 52.8H257.89V60H253.45ZM274.718 60.78C266.138 60.78 259.298 53.52 259.298 44.52C259.298 35.52 266.138 28.14 274.718 28.14C280.118 28.14 282.938 30.36 284.618 33.72V28.8H292.658V60H284.798V54.9C283.118 58.44 280.298 60.78 274.718 60.78ZM267.398 44.46C267.398 49.2 270.878 53.46 276.038 53.46C281.378 53.46 284.798 49.38 284.798 44.52C284.798 39.66 281.378 35.46 276.038 35.46C270.878 35.46 267.398 39.6 267.398 44.46ZM297.47 60V28.8H305.45V33.36C307.07 29.88 310.19 28.08 314.99 28.08C321.71 28.08 326.87 33.06 326.87 40.92V60H318.77V42.9C318.77 37.5 316.07 35.16 312.05 35.16C308.63 35.16 305.57 37.5 305.57 42.9V60H297.47ZM345.616 60.78C337.036 60.78 330.196 53.52 330.196 44.52C330.196 35.52 337.036 28.14 345.616 28.14C350.956 28.14 353.776 30.3 355.456 33.6V16.2H363.556V60H355.696V54.9C354.016 58.44 351.196 60.78 345.616 60.78ZM338.296 44.46C338.296 49.2 341.776 53.46 346.936 53.46C352.276 53.46 355.696 49.38 355.696 44.52C355.696 39.66 352.276 35.46 346.936 35.46C341.776 35.46 338.296 39.6 338.296 44.46Z" fill="black"/>
</svg>
