<svg width="289" height="56" viewBox="0 0 289 56" fill="none" xmlns="http://www.w3.org/2000/svg">
<path d="M0.4 44V0.199999H8.5V44H0.4ZM27.5106 44.78C18.9306 44.78 12.0906 37.52 12.0906 28.52C12.0906 19.52 18.9306 12.14 27.5106 12.14C32.9106 12.14 35.7306 14.36 37.4106 17.72V12.8H45.4506V44H37.5906V38.9C35.9106 42.44 33.0906 44.78 27.5106 44.78ZM20.1906 28.46C20.1906 33.2 23.6706 37.46 28.8306 37.46C34.1706 37.46 37.5906 33.38 37.5906 28.52C37.5906 23.66 34.1706 19.46 28.8306 19.46C23.6706 19.46 20.1906 23.6 20.1906 28.46ZM50.2633 44V12.8H58.2433V17.36C59.8633 13.88 62.9833 12.08 67.7833 12.08C72.1633 12.08 75.8833 14.18 77.9233 17.96C80.0233 14.18 83.0233 12.08 88.4833 12.08C95.2033 12.08 100.363 17.06 100.363 24.92V44H92.2633V26.9C92.2633 21.5 89.6833 19.16 86.0233 19.16C82.2433 19.16 79.6633 20.9 79.6633 26.9V44H71.5633V26.9C71.5633 21.5 68.8633 19.16 64.8433 19.16C61.4233 19.16 58.3633 21.5 58.3633 26.9V44H50.2633ZM104.873 56V12.8H112.853V17.84C114.533 14.42 117.353 12.14 122.813 12.14C131.393 12.14 138.233 19.52 138.233 28.52C138.233 37.52 131.393 44.78 122.813 44.78C117.473 44.78 114.653 42.62 112.973 39.38V56H104.873ZM112.733 28.52C112.733 33.38 116.153 37.46 121.493 37.46C126.653 37.46 130.133 33.2 130.133 28.46C130.133 23.6 126.653 19.46 121.493 19.46C116.153 19.46 112.733 23.66 112.733 28.52ZM151.881 44.78C146.601 44.78 142.341 42.98 138.921 39.32L144.381 34.34C146.661 36.92 149.061 38.18 151.701 38.18C154.461 38.18 156.021 36.8 156.021 34.94C156.021 33.32 155.241 32.42 150.321 31.28C141.981 29.3 140.721 25.52 140.721 21.56C140.721 16.1 145.041 12.02 152.361 12.02C157.401 12.02 160.761 13.28 163.941 17.42L158.061 21.92C156.561 19.52 154.641 18.56 152.541 18.56C150.321 18.56 148.641 19.4 148.641 21.32C148.641 22.4 149.121 23.36 152.841 24.32C161.901 26.66 164.001 30.02 164.001 34.7C164.001 40.46 158.781 44.78 151.881 44.78ZM178.45 44C172.27 44 168.91 41.12 168.91 34.34V19.7H164.53V12.8H168.91V6.5L177.01 5.66V12.8H183.61V19.7H177.01V33.92C177.01 35.9 177.97 36.8 179.53 36.8H182.89V44H178.45ZM199.718 44.78C191.138 44.78 184.298 37.52 184.298 28.52C184.298 19.52 191.138 12.14 199.718 12.14C205.118 12.14 207.938 14.36 209.618 17.72V12.8H217.658V44H209.798V38.9C208.118 42.44 205.298 44.78 199.718 44.78ZM192.398 28.46C192.398 33.2 195.878 37.46 201.038 37.46C206.378 37.46 209.798 33.38 209.798 28.52C209.798 23.66 206.378 19.46 201.038 19.46C195.878 19.46 192.398 23.6 192.398 28.46ZM222.47 44V12.8H230.45V17.36C232.07 13.88 235.19 12.08 239.99 12.08C246.71 12.08 251.87 17.06 251.87 24.92V44H243.77V26.9C243.77 21.5 241.07 19.16 237.05 19.16C233.63 19.16 230.57 21.5 230.57 26.9V44H222.47ZM270.616 44.78C262.036 44.78 255.196 37.52 255.196 28.52C255.196 19.52 262.036 12.14 270.616 12.14C275.956 12.14 278.776 14.3 280.456 17.6V0.199999H288.556V44H280.696V38.9C279.016 42.44 276.196 44.78 270.616 44.78ZM263.296 28.46C263.296 33.2 266.776 37.46 271.936 37.46C277.276 37.46 280.696 33.38 280.696 28.52C280.696 23.66 277.276 19.46 271.936 19.46C266.776 19.46 263.296 23.6 263.296 28.46Z" fill="black"/>
</svg>
